PathFileType	4	(X/Y/Z)	Patient5_TMGait_0pt45_1_left_10.trc.trc
DataRate	CameraRate	NumFrames	NumMarkers	Units	OrigDataRate	OrigDataStartFrame	OrigNumFrames
55.776892430279	55.776892430279	5	32	mm	55.776892430279	1	       141
Frame#	Time	R.ASIS			L.ASIS			Chest			R.Shoulder			Neck			L.Shoulder			L.Elbow			L.Wrist			R.Elbow			R.Wrist			L.Thigh.Superior			L.Thigh.Lateral			L.Thigh.Inferior			L.Patella			L.Shank.Superior			L.Shank.Lateral			L.Shank.Inferior			L.Heel			L.Midfoot.Lateral			L.Midfoot.Superior			L.Toe			R.Thigh.Superior			R.Thigh.Lateral			R.Thigh.Inferior			R.Patella			R.Shank.Superior			R.Shank.Lateral			R.Shank.Inferior			R.Heel			R.Midfoot.Lateral			R.Midfoot.Superior			R.Toe			
		X1	Y1	Z1	X2	Y2	Z2	X3	Y3	Z3	X4	Y4	Z4	X5	Y5	Z5	X6	Y6	Z6	X7	Y7	Z7	X8	Y8	Z8	X9	Y9	Z9	X10	Y10	Z10	X11	Y11	Z11	X12	Y12	Z12	X13	Y13	Z13	X14	Y14	Z14	X15	Y15	Z15	X16	Y16	Z16	X17	Y17	Z17	X18	Y18	Z18	X19	Y19	Z19	X20	Y20	Z20	X21	Y21	Z21	X22	Y22	Z22	X23	Y23	Z23	X24	Y24	Z24	X25	Y25	Z25	X26	Y26	Z26	X27	Y27	Z27	X28	Y28	Z28	X29	Y29	Z29	X30	Y30	Z30	X31	Y31	Z31	X32	Y32	Z32	

1	15.150000000000	1044.214856279694	972.700666732935	603.837396297564	1019.889060254700	955.678018938824	363.449798924113	1092.067727685198	1433.126915333243	494.767394482300	999.788499062174	1491.240458636878	667.762934630256	965.633309983526	1555.041368260446	486.767110037706	1016.016517651065	1502.060612212818	302.012228068547	902.540939291490	1200.946381784623	168.655139302353	975.771971257411	919.416638597941	155.115147558879	927.233196039723	1169.757492480852	807.410637178353	1137.906064086901	991.928435138806	714.942420787847	1027.502039007609	729.909993188059	343.542729882677	945.289736888484	666.892920662304	301.368902410163	1017.768476474165	598.686311175353	351.334604634093	993.836959767273	459.055148780444	341.022950154840	902.418488544458	383.128067502927	367.746378073308	801.131033874720	362.120364392610	297.819396924135	812.430182539439	295.134551761618	383.719053337645	578.974571314374	145.739294446073	386.176117831349	649.773971665578	76.879159525223	338.005220057301	762.417661869711	96.957796317416	377.157943856213	834.001249800401	40.758047592065	401.415684839026	1082.227445106626	745.447689471468	634.564830051261	1003.496458391531	658.948729106881	679.477572667371	1095.157632297323	618.195503948826	610.204770751756	1103.251711223728	517.392696507314	635.596196179067	1060.163301092656	414.458530474962	591.563811980333	985.612387659060	345.840689748839	670.737015179271	1036.799551925525	276.800431858626	585.376108856791	905.407194694548	54.549535389679	547.563428895107	984.368437278122	25.509804670090	620.352466184697	1090.362608788626	87.967329788711	595.972166913907	1193.463133975071	44.170706485220	595.279269495628	
2	15.167928571429	1046.519016772631	972.533958498680	606.480218909180	1018.620943486312	954.861141000321	366.217519906433	1094.244323019079	1431.796803231203	498.517998712232	1004.084998607038	1489.708710603623	672.734813415359	967.763638122251	1554.218948764090	492.358671893626	1016.330551125299	1501.900027429743	306.937202792334	900.581065708513	1201.547660590791	173.961110923826	972.826963725784	919.741179408659	160.676297789234	932.109283228322	1168.759494545489	813.740118291812	1142.787521532533	991.956917122423	719.912069308468	1036.014669962611	731.992913700156	341.790711922014	957.360043865178	666.115863283540	300.056573100045	1034.005101470094	601.132278163257	348.815312451225	1015.707077058759	460.120243764932	339.593128982109	920.786303323923	384.337615805347	366.303641483893	820.154082282453	366.713148582574	295.468995229153	827.256180307003	300.247021315663	381.276663738022	588.640045518171	169.706137246387	382.594233695871	651.964373984109	94.432036449343	335.572762669517	764.908670882050	103.648356691121	375.698982218269	828.782350416884	39.751383284555	400.566207018752	1079.045917900394	744.333963683298	634.202909483931	999.939105211338	659.062967077808	681.223159846776	1088.769641253129	616.678492127844	609.617588069520	1095.667856265141	516.071982829596	635.024696262518	1051.645907899902	414.163855125512	592.116701718983	977.973198430463	345.394199693854	671.636621812588	1028.082177768832	276.398626420739	585.729621365096	896.804749414117	54.326533338923	547.709215966799	975.704345977938	25.336666028096	620.575140333165	1081.694680468775	87.820744431055	595.988727585352	1184.885740951248	44.111019947626	595.298421749849	
3	15.185857142857	1048.956139092602	972.581289881783	609.295379086800	1017.315499648102	954.123587159168	368.859738997474	1096.297368522591	1430.482020657399	502.085717431733	1008.231019994049	1488.149019547907	677.488599774367	969.808394152160	1553.404071866539	497.725548587723	1016.583521893573	1501.725142962122	311.649530030127	898.608929403507	1201.972793040831	179.275776340478	970.038844430760	919.947756049097	166.038605560186	937.077890411884	1167.692967595191	819.858203727952	1147.656112093571	991.636328502262	724.930854654838	1044.334489926687	734.351612217721	340.481375497812	969.343247021493	665.639262018770	299.055161769232	1049.987400358780	603.996438087198	346.815821895150	1037.266438164258	461.571833328698	338.596095256719	939.020599314230	385.942049359627	365.182432443468	839.163859968458	371.540269036558	293.319599464721	842.073050126155	305.760287864071	379.159486601604	598.772680246879	193.370711744937	379.006343666959	654.917092152323	112.062863597058	333.094928737840	767.929305141649	110.838652558461	374.374734304667	824.138834639764	39.032648672812	399.785616246273	1075.913036761984	743.205843890423	633.845357911802	996.250151328643	659.219367606177	682.870106966615	1082.245702795464	615.173035711861	609.040421602111	1087.863018080602	514.838400160854	634.432618144503	1042.978801842367	413.945507723586	592.587844172758	970.257612091778	345.035718618414	672.500822999447	1019.369873502058	276.092470226755	586.046598666819	888.293060264774	54.125843268178	547.872635343527	967.135644568694	25.175939783030	620.795616350720	1073.120683982241	87.683525560531	596.010616675548	1176.398147190341	44.049305762945	595.319250838280	
4	15.203785714286	1051.504914614219	972.923267115846	612.311134765518	1015.988923804176	953.571919896670	371.293570114974	1098.136639797221	1429.242856978638	505.275362469069	1012.114132321829	1486.589730313864	681.804504592383	971.705703215268	1552.636736927126	502.647279371638	1016.712589366988	1501.573233597732	315.943663513456	896.655727473765	1202.135093273870	184.527855249070	967.609747170166	920.001796014959	171.045960416074	942.177303362642	1166.574259150028	825.561220914294	1152.481000534786	990.777833529511	729.991862552300	1052.267359289895	737.246982167539	339.976365740649	981.096386090407	665.774155368626	298.621429194237	1065.401895495386	607.648165380667	345.753112138694	1058.149768067543	463.783369311119	338.346080711131	956.964563821484	388.247021070946	364.626894249101	858.035688281726	376.712086381354	291.580798507352	856.891722922667	311.823802825482	377.621643569248	609.743147688843	215.792370281145	375.525351683463	659.513839679638	129.293210395763	330.589715177132	772.274879825584	118.702424062477	373.271232696264	821.275986823498	38.927204020892	399.055529739773	1072.786493546263	742.039929989487	633.484351443308	992.267188136758	659.439095834905	684.344346630497	1075.428431847301	613.692934566288	608.489192682067	1079.630476075994	513.753734625272	633.823276655734	1034.008545744446	413.880362705694	592.933984491911	962.354047906933	344.844488890182	673.303422003750	1010.627681453279	275.970367495322	586.314848228259	879.923633011024	53.964964926591	548.066669634348	958.723101190003	25.035922164969	621.009107258768	1064.701354760989	87.566090218812	596.044428626045	1168.056295575630	43.993690211773	595.344871561876	
5	15.221714285714	1053.948524785550	973.471001124312	615.380753060638	1014.695563005170	953.316432257822	373.498496923362	1099.719798507029	1428.164474749093	507.939084749923	1015.683422974215	1485.093944469542	685.527849330996	973.430640090947	1551.977270111597	506.977279844880	1016.662326782901	1501.522753000810	319.683370908934	894.779847454449	1202.041335806048	189.629903182363	965.711776308654	919.939734252097	175.633541592750	947.432222205030	1165.480529391291	830.723665458103	1157.246964321247	989.341467993568	735.070615793832	1059.708673135633	740.882430026845	340.517726737217	992.520152629707	666.769564787050	298.920366668355	1080.021209298227	612.343186466743	345.881796196163	1078.112156001408	467.034654603347	338.985168163855	974.517369403463	391.446689663470	364.750977826324	876.640240082133	382.267829350550	290.409961413647	871.770637394795	318.399667860188	376.781340225268	621.743325509585	235.832530046492	372.298271851421	666.527056230140	145.384593424790	328.107657620293	778.754189368271	127.172864176388	372.433034150426	821.576651121812	39.794694659028	398.341960345084	1069.553714318381	740.804325477322	633.149617481790	987.803065876813	659.726459685347	685.609248990569	1068.144255036813	612.246658752030	607.988179895685	1070.766399786585	512.852853766264	633.213808813020	1024.565783743324	414.031598915893	593.147223728053	954.103998783731	344.880765598925	674.029459927801	1001.758963528539	276.095481737763	586.538387845846	871.676325513804	53.853521056585	548.298627521253	950.454719074930	24.921686183940	621.211315033505	1056.426321126218	87.476471097694	596.094979236808	1159.845466243971	43.954326304428	595.378267788178	
